# xmcd
#
# Track frame offsets: 
#        150
#        13322
#        25980
#        38288
#        52231
#        65156
#        78864
#        92351
#        106457
#        122167
#        135677
#        148819
#        162161
#        174957
#        187815
#        201771
#        214299
#        228640
#        240983
#        253354
#        264645
#        276930
#        287848
#        298549
#
# Disc length: 4127 seconds
#
# Revision: 1
# Processed by: cddbd v1.5.2PL0 Copyright (c) Steve Scherf et al.
# Submitted via: ExactAudioCopyFreeDBPlugin 1.0
#
DISCID=69101d18
DTITLE=Alberta Hunter - The Alberta Hunter Collection 1921-40 [CD4)
DYEAR=2017
DGENRE=Blues
TTITLE0=Alberta Hunter  with Jack Jackson's Orchestra  - Where The Mou
TTITLE0=ntain Meets The Sea
TTITLE1=Alberta Hunter  with Jack Jackson's Orchestra  - A Lonely Sing
TTITLE1=ing Fool
TTITLE2=Alberta Hunter  with Jack Jackson's Orchestra  - What Shall I 
TTITLE2=Do?
TTITLE3=Alberta Hunter  with Jack Jackson's Orchestra  - I Travel Alon
TTITLE3=e
TTITLE4=Alberta Hunter  with Jack Jackson's Orchestra  - Two Little Fl
TTITLE4=ies On A Lump Of Sugar
TTITLE5=Alberta Hunter  with Jack Jackson's Orchestra  - Stars Fell On
TTITLE5=Alabama
TTITLE6=Alberta Hunter  with Jack Jackson's Orchestra  - Long May We L
TTITLE6=ove
TTITLE7=Be Still My Heart
TTITLE8=Driftin' Tide
TTITLE9=You Can't Tell The Difference After Dark
TTITLE10=Second Hand Man
TTITLE11=Send Me A Man
TTITLE12=Chirpin' The Blues
TTITLE13=Downhearted Blues
TTITLE14=I'll See You Go
TTITLE15=Fine And Mellow
TTITLE16=Yelpin' The Blues
TTITLE17=Someday Sweetheart
TTITLE18=The Love I Have For You
TTITLE19=My Castle's Rockin'
TTITLE20=Boogie-Woogie Swing
TTITLE21=I Won't Let You Down
TTITLE22=Take Your Big Hands Off
TTITLE23=He's Got A Punch Like Joe Louis
EXTD=
EXTT0=
EXTT1=
EXTT2=
EXTT3=
EXTT4=
EXTT5=
EXTT6=
EXTT7=
EXTT8=
EXTT9=
EXTT10=
EXTT11=
EXTT12=
EXTT13=
EXTT14=
EXTT15=
EXTT16=
EXTT17=
EXTT18=
EXTT19=
EXTT20=
EXTT21=
EXTT22=
EXTT23=
PLAYORDER=
